<svg width="18" height="18" viewBox="0 0 18 18" fill="none" xmlns="http://www.w3.org/2000/svg">
<path d="M9 1.44C4.875 1.44 1.5 4.8075 1.5 8.955C1.5 12.705 4.245 15.8175 7.83 16.38V11.13H5.925V8.955H7.83V7.2975C7.83 5.415 8.9475 4.38 10.665 4.38C11.4825 4.38 12.3375 4.5225 12.3375 4.5225V6.375H11.3925C10.4625 6.375 10.17 6.9525 10.17 7.545V8.955H12.255L11.9175 11.13H10.17V16.38C11.9373 16.1009 13.5467 15.1991 14.7074 13.8375C15.8682 12.476 16.504 10.7442 16.5 8.955C16.5 4.8075 13.125 1.44 9 1.44Z" fill="white"/>
</svg>
