<?xml version="1.0" encoding="UTF-8"?><svg id="a" xmlns="http://www.w3.org/2000/svg" viewBox="0 0 102.93 89.57"><defs><style>.b{fill:#fff;}.c{fill:#5f5f82;opacity:.39;}.d{fill:#cfddeb;}.e{fill:#631616;}</style></defs><g><path class="d" d="M45.2,30.72c.93-3.89,10.55-30.72,11.66-30.72s20.95,43.01,20.79,44.81c-.16,1.8-4.38,17.42-4.38,17.42l-22.23-19.81-5.83-11.69Z"/><path class="c" d="M45.2,30.72c.29-1.21,1.42-4.66,2.88-8.83l8.16,19.18,11.6,10.31,6.74-14.44c1.88,4.34,3.11,7.41,3.07,7.87-.16,1.8-4.38,17.42-4.38,17.42l-22.23-19.81-5.83-11.69Z"/><path class="d" d="M88.31,21.3c.76,.76-5.78,46.34-6.7,46.72-.93,.38-16.8,12.05-17.91,10.16-1.11-1.89,14.15-45.81,14.62-46.89,.47-1.07,9.99-9.99,9.99-9.99Z"/><path class="c" d="M87,34.63l-9.63-.68c.54-1.55,.89-2.51,.95-2.66,.27-.62,3.57-3.86,6.3-6.49l3.22,2.97c-.23,1.99-.52,4.32-.85,6.85Z"/><path class="d" d="M27.44,64.4c-1.48-.2-21.09-3.54-21.46-3.07-.37,.47,13.14,14.51,13.51,15.35,.37,.85,11.81,1.91,13.3,2.05,1.5,.14-5.35-14.33-5.35-14.33Z"/><path class="b" d="M88.31,21.3s14.8,11.4,14.62,11.98c-.18,.58-24.05-1.22-24.61-1.98-.56-.77,8.81-10.91,9.99-9.99Z"/><path class="c" d="M32.54,76.43c.46,1.4,.63,2.33,.24,2.3-1.5-.14-12.93-1.2-13.3-2.05-.37-.85-13.88-14.88-13.51-15.35l16.47,14.2,10.1,.9Z"/><path class="c" d="M64.34,74.25c1.18-4.63,3.71-12.62,6.3-20.46l11.39,12.93c-.18,.81-.33,1.27-.42,1.31-.64,.27-8.53,6-13.64,8.82l-3.63-2.6Z"/><path class="b" d="M81.61,68.02s-15.13,10.06-16.06,10.71c-.93,.65-32.57,.66-33.49-.18-.93-.84-14.99-25.63-14.8-26.56,.19-.93,17.58-49.4,18.13-49.4,.27,0,19.37,39.91,19.37,39.91l26.85,25.52Z"/><path class="c" d="M35.39,2.59s.04,.03,.09,.08c-3.19,12.3-12.8,48.46-12.8,48.46l12.09,25.22,25.57,2.74c-9.25,.25-27.58,.1-28.28-.53-.93-.84-14.99-25.63-14.8-26.56,.19-.93,17.58-49.4,18.13-49.4Z"/></g><ellipse class="e" cx="49.44" cy="86.48" rx="49.44" ry="3.09"/></svg>