<?xml version="1.0" encoding="UTF-8"?><svg id="a" xmlns="http://www.w3.org/2000/svg" xmlns:xlink="http://www.w3.org/1999/xlink" viewBox="0 0 579.24 536.55"><defs><style>.c{fill:#fff;}.d{fill:#5f5f82;opacity:.39;}.e{fill:#a32424;}.f{fill:#cfddeb;}.g{fill:#0a0929;}.h{fill:url(#b);}.i{fill:#ffc4cb;}.j{fill:#631616;}</style><linearGradient id="b" x1="268.27" y1="0" x2="268.27" y2="536.55" gradientTransform="matrix(1, 0, 0, 1, 0, 0)" gradientUnits="userSpaceOnUse"><stop offset="0" stop-color="#db3030"/><stop offset=".19" stop-color="#d42e2e"/><stop offset=".46" stop-color="#c22a2a"/><stop offset=".77" stop-color="#a62323"/><stop offset="1" stop-color="#8c1e1e"/></linearGradient></defs><circle class="h" cx="268.27" cy="268.28" r="268.28"/><g><path class="g" d="M578.43,300.79c-15.78-13.8-41.7-21.64-65.89-26.92-24.23-5.29-48.51-13.69-68-29.26-11.21-8.95-16.37-23.01-28.61-31.27-17.37-11.73-38.95-13.5-59.02-17.2-5.22-.96-10.44-2.02-15.64-3.15-1.84-9.27-7.66-18.12-12.7-25.8-4.2-6.39-11.48-13.07-10.01-21.34,1.41-7.93,7.41-15.16,10.58-22.52,5.37-.18,10.73-.28,16.11-.25,7.07,.04,15.09,1.85,21.79-.63,2.44-.9,2.34-4.16,.2-5.31-5.99-3.2-14.62-2.16-21.27-2.06-4.82,.07-8.16,1.25-14.11-.73,2-8.36-2.48-15.1-7.07-23.13-7.72-13.54-19.62-22.36-22.31-38.62-.56-3.38-4.78-3.24-5.7-.18-3.56,11.86,2,21.89,9.42,30.99,5.35,6.56,13.15,13.79,13.59,22.86,.46,9.52-6.86,18.48-10.83,26.52-5.32,10.76-6.52,20.07,.07,30.6,3.94,6.3,8.76,12.01,12.54,18.43,1.4,2.37,2.52,4.89,3.61,7.42-12.71-3.18-25.31-6.83-37.68-10.99-10-3.36-21.16-6.34-30.12-12.05-10.53-6.71-11.96-17.43-13.38-28.86-2.31-18.56-7.73-31.14-20.97-44.8-19.38-20-39.44-39.4-59.15-59.08-4.12-4.11-9.81,2.8-5.8,6.89,17.28,17.59,34.57,35.16,51.84,52.76,.3,.3,.6,.61,.9,.91-11.26,9.99-30.82,21.7-48.78,24.69-16.51,2.75-43.87-15.87-57.35-5.17-2.37,1.88-1.05,5.63,1.57,6.99,4.91,2.55,5.94,2,11.44,1.71,8.02-.43,15.1,.27,22.79,2.64,8.2,2.53,13.7,4.44,22.25,2.16,18.89-5.03,38.81-14.95,56.22-24.57,5,5.5,9.44,11.41,11.96,18.57,3.1,8.79,2.42,18.46,3.75,27.56,2.3,15.71,10.09,25.73,24.29,32.79,19.18,9.53,40.15,16.67,60.69,22.56,22.52,6.46,46.09,8.77,68.47,15.44,6.42,1.92,11.93,4.42,16.8,7.79-10.29,2.47-20.05,6.68-30.03,10.95-6.95,2.97-13.82,6.43-21.17,8.32-8.51,2.19-15.17,.59-22.47-2.14-2.32-9.15-9.8-17.59-16.64-23-6.06-4.79-12.7,3.64-7.57,8.99,2.76,2.87,11.59,9.32,14.49,12.03-9.69-3.29-25.45-9.75-35.37-12.08-13.19-3.1-27.56-7.47-41.03-4.5-5.2,1.14-7.18,5.37-2.02,8.04,12.26,6.36,24.73,5.54,38.16,8.37,15.83,3.33,33.37,9.53,48.68,14.44,31.14,10,55.4-13.62,83.79-21.54,1.59,1.78,3.14,3.67,4.61,5.78,3.61,5.18,6.84,10.5,11.47,14.84,17.1,16.03,41.07,26.66,61.64,37.35,21.68,11.27,47.17,23.59,65.95,38.86,5.47,4.45,26.09-26.67,21-31.12Z"/><path class="c" d="M279.18,143.76c-2.06-1.41-4.18-2.44-6.47-3.08,1.2-1.16,2.33-2.39,3.4-3.72,1.3-1.62-.36-3.46-2.14-3.04-2.22,.52-4.72,2.01-5.98,4.07-.07-.07-.13-.15-.2-.22,.11-2.58-.91-4.59-3.09-6.21-1.25-.93-2.73-.01-2.75,1.45-.02,1.47,.35,2.75,.95,3.92-1.32-.18-2.66-.26-4.05-.22-1.67,.05-2.38,2.47-1.07,3.46,2.2,1.67,4.54,2.76,7.15,3.32-.33,2.42,.08,4.77,1.23,7.05,.59,1.18,2.41,1.92,3.34,.58,1.13-1.62,1.72-3.4,1.74-5.17,2.12,.95,4.36,1.49,6.88,1.24,1.55-.15,2.51-2.46,1.07-3.45Z"/><path class="c" d="M412.16,203.24c3.27-1.45,6.66-3.63,3.89-6.23-2.4-2.26-6.29,.01-9.01,2.29-.6-2.23-1.87-3.53-4.04-4.53-.93-.43-2.33,.15-2.4,1.28-.16,2.39,.45,4.29,1.66,5.88-2.09,.75-4.08,1.86-5.91,3.02-1.69,1.07-.9,3.65,.91,3.99,2.52,.47,4.85-.14,7.06-1.17,.07,2.03,.64,4,1.77,5.84,.59,.96,2.17,.78,2.59-.24,.71-1.71,.79-3.35,.54-4.99,1.68,.94,3.48,1.63,5.45,2.1,.89,.22,1.78-.69,1.66-1.56-.37-2.85-2.01-4.55-4.16-5.67Z"/><path class="c" d="M213.44,63.89c-1.37-1.75-2.89-3.22-4.63-4.42,3.31-1.65,7.07-4.11,5.45-7.08-1.68-3.08-5.3-.99-7.95,1.23-.61-3.34-2.8-7.49-6.21-5.18-2.22,1.5-1.96,3.98-.9,6.3-1.89-.4-3.8-.69-5.77-.85-1.61-.13-3.11,1.68-1.98,3.15,2.31,2.99,5.37,4,8.76,4.32-1.81,3.09-3.9,7.47-.3,8.51,2.88,.83,4.53-2.71,5.43-5.82,1.78,1.38,3.79,2.32,6.18,2.9,1.62,.39,2.92-1.77,1.91-3.05Z"/><path class="c" d="M167.51,105.08c2.5-.27,4.88-.92,7.03-2.49,1.57-1.14,.54-3.33-1.23-3.32-2.3,.01-4.53,.26-6.75,.69,.35-.73,.69-1.48,.99-2.25,.32-.81,.11-1.57-.49-2.17-2.77-2.79-4.65,1.19-5.21,4.28-1.52-1.51-4.08-2.51-5.62-3.19-1.42-.63-2.82,.76-2.36,2.19,.9,2.83,3.26,3.44,5.47,4.52-1.85,1.06-3.61,2.25-5.27,3.64-1.34,1.12-.71,3.51,1.23,3.32,2.77-.28,5.02-1.36,6.84-3.15,1.85,3.2,5.09,8,7.85,6.39,2.81-1.64-.09-5.63-2.5-8.47Z"/><path class="c" d="M311.74,151.53c1.64-.86,3.38-1.47,5.29-1.83,1.43-.27,2.06-1.65,1.33-2.9-2.01-3.48-6.45-.52-9.02,1.86-.24,.14-.49,.29-.73,.43,.14-2.89-.54-7.37-3.97-6.54-2.74,.67-1.69,3.59-.51,6.01-2.02-.12-4.03,.18-6.05,.9-1.33,.47-1.61,2.28-.55,3.17,2.17,1.83,4.08,1.52,6.3,1.47-.2,.43-.38,.86-.48,1.04-.57,1.04-1.19,2.07-1.7,3.14-.67,1.4-.97,2.15-.43,3.63,.22,.61,.79,1.08,1.43,1.18,3.21,.48,4.96-3.67,6-6.85,1.82,1.4,3.75,2.56,5.89,3.53,1.53,.7,2.83-.81,2.45-2.27-.77-2.94-2.8-4.7-5.26-5.97Z"/><g><g><path class="c" d="M187.01,152.53c2.97,1.77,5.78,3.86,9.28,4.63,4.17,.92,7.57,.25,11.26-1.78,3.11-1.72,3.08-6.88,.39-8.9-2.95-2.22-5.98-4.11-9.13-5.76,6.33-4.04,11.8-9.45,9.3-15.56-3.57-8.72-13.4-3.22-21.02,2.44-1.73-8.67-5.75-17.17-14.2-12.3-5.87,3.38-5.65,10.45-2.84,16.77-2.79-.17-5.68,.07-8.67,.7-2.89,.61-5.68,3.51-4.2,6.72,2.35,5.09,7.64,6.67,13.27,7.09-4.29,6.76-6.82,14.94-.35,20.25,8.36,6.87,14.37-5.15,16.92-14.29Z"/><path class="i" d="M191.51,147.87c2.51,.69,4.39-3.31,2.18-4.75-1.29-.84-2.61-1.57-3.97-2.18,3.51-1.94,6.23-4.6,3.82-7.72-.72-.93-2.03-1.46-3.17-.99-2.9,1.2-5.11,2.94-6.85,5.36-.2,.08-.41,.17-.61,.25-.16-1.98-1.1-3.75-2.83-5.3-1.45-1.3-3.28,.12-3.32,1.75-.02,.91,.06,1.77,.19,2.62-1.82-.49-3.71-.66-5.72-.54-1.95,.12-3.07,3.08-1.32,4.26,2.49,1.68,4.98,2.7,7.72,3.17-.83,2.45-1.37,4.96-1.58,7.62-.18,2.27,2.77,4.13,4.37,2.01,1.73-2.28,2.94-4.69,3.63-7.36,2.5,.57,5,1.13,7.46,1.81Z"/></g><path class="e" d="M185.55,142.15c-.32-.19-.66-.41-1-.62,.43-.15,.87-.3,1.32-.44,.58-.18,1.17-.27,1.75-.43,.63-.18,1.14-.57,1.76-.81,.45-.18,.59-.98,.04-1.15-.63-.2-1.31-.52-1.97-.54-.78-.02-1.73,.31-2.45,.58-.26,.1-.48,.28-.73,.4,.05-.62,.11-1.23,.3-1.85,.45-1.48,1.4-2.67,1.96-4.08,.26-.64-.2-1.33-.91-1.28-3.38,.24-5.82,5.25-4.61,8.41-.52,.24-.81,.83-.62,1.44,.42,1.37,1.84,2.56,2.89,3.46,1.27,1.09,2.47,1.52,4.15,1.5,.68,0,1.25-.89,.94-1.51-.7-1.44-1.48-2.27-2.84-3.08Z"/></g><g><g><path class="c" d="M154.01,117.4c-2.73-2.05-5.54-3.7-8.44-5.03,4.57-5.17,7.06-11.37,3.5-17.74-1.99-3.57-6.95-3.57-10-1.76-4.58,2.72-9.01,5.51-13.26,8.57-1.63-4.35-3.62-8.54-6.08-12.69-3.53-5.95-11.55-2.51-13,2.98-.92,3.47-.67,7.26,.44,10.89-3.35-.09-6.65,.23-9.52,.81-3.33,.68-7.11,3.64-6.23,7.6,1.92,8.68,10.55,10.68,19.07,11.15-.79,6.13,.26,12.37,3.23,18.22,2.78,5.47,9.13,6.99,13.59,2.36,3.45-3.58,5.68-7.83,6.75-12.35,5.57,2,11.44,2.5,17.7-.03,5.06-2.04,7.02-9.42,2.26-13Z"/><path class="i" d="M141.7,119.13c-3.15-2.16-6.39-3.74-9.88-4.71,1.84-1.77,3.57-3.65,5.19-5.68,1.98-2.48-.55-5.29-3.27-4.65-3.39,.8-7.21,3.08-9.14,6.22-.11-.11-.21-.22-.31-.34,.16-3.95-1.39-7.01-4.73-9.5-1.91-1.42-4.17-.02-4.2,2.22-.03,2.24,.54,4.2,1.45,6-2.01-.28-4.06-.39-6.19-.33-2.56,.07-3.64,3.77-1.64,5.29,3.37,2.56,6.95,4.23,10.93,5.08-.5,3.7,.12,7.3,1.88,10.78,.91,1.8,3.68,2.93,5.1,.89,1.72-2.47,2.63-5.19,2.65-7.9,3.25,1.45,6.67,2.28,10.52,1.9,2.38-.24,3.83-3.76,1.63-5.27Z"/></g><path class="e" d="M133.34,114.24c-1.58-1.26-3.92-1.36-5.86-1.11-.08,.01-.15,.03-.22,.04,1.07-.85,2.11-1.49,2.8-2.72,.41-.73-.17-1.89-1.03-1.93-1.88-.1-3.4,.93-4.57,2.36-.48-1.55-.92-3.53-2.55-4.23-.79-.34-1.7-.01-2.07,.77-.77,1.6,.2,3.4,.86,4.88,.44,.99,.95,1.95,1.46,2.91-.04,.13-.1,.27-.14,.4-.32,1.05,.54,1.78,1.33,1.62,.61,.51,1.67,.27,2.13-.36,.69,0,1.39,0,2.1,0,1.58,0,3.35,.45,4.9,.13,1.23-.26,1.99-1.84,.85-2.75Z"/></g><g><g><path class="i" d="M241.77,107.69c-3.28-1.1-6.7-1.87-9.56-4.01-3.42-2.56-5.13-5.58-5.99-9.7-.72-3.48,3.21-6.83,6.5-6.1,3.61,.79,7.02,1.86,10.32,3.16-1.06-7.44-.53-15.11,5.73-17.19,8.94-2.97,11.17,8.06,11.86,17.53,7.7-4.34,16.77-6.84,18.59,2.75,1.26,6.65-4.24,11.09-10.86,13.08,1.95,2,3.65,4.36,5.13,7.03,1.43,2.59,1.04,6.6-2.36,7.57-5.39,1.54-10.04-1.45-14.03-5.44-2.33,7.66-6.89,14.91-15.13,13.47-10.66-1.86-5.47-14.26-.2-22.15Z"/><path class="c" d="M242.37,101.24c-2.16-1.45-.35-5.49,2.18-4.75,1.48,.43,2.89,.96,4.24,1.59-.81-3.93-.58-7.73,3.36-7.93,1.17-.06,2.43,.58,2.81,1.76,.98,2.99,1.1,5.79,.4,8.69,.07,.21,.14,.42,.21,.62,1.61-1.17,3.56-1.61,5.86-1.3,1.93,.25,2.05,2.56,.84,3.66-.67,.61-1.38,1.11-2.11,1.57,1.55,1.06,2.92,2.38,4.14,3.99,1.18,1.55-.34,4.33-2.37,3.78-2.9-.79-5.29-2.01-7.44-3.78-1.32,2.23-2.87,4.27-4.75,6.16-1.6,1.62-4.93,.59-4.37-2.01,.6-2.79,1.64-5.29,3.21-7.55-2.06-1.53-4.12-3.05-6.24-4.48Z"/></g><path class="e" d="M250.59,102.04c.36,.12,.73,.23,1.12,.35-.17-.43-.34-.85-.53-1.29-.24-.55-.55-1.06-.81-1.6-.28-.6-.32-1.23-.53-1.86-.16-.46,.36-1.08,.85-.79,.57,.35,1.25,.65,1.7,1.14,.52,.58,.89,1.52,1.15,2.23,.1,.26,.1,.54,.17,.81,.43-.44,.86-.89,1.21-1.44,.83-1.3,1.11-2.8,1.82-4.15,.32-.61,1.14-.71,1.57-.14,2.03,2.72-.19,7.83-3.38,8.98,.16,.55-.1,1.16-.69,1.41-1.31,.57-3.13,.28-4.51,.06-1.65-.25-2.76-.88-3.84-2.17-.44-.52-.14-1.53,.53-1.7,1.55-.4,2.68-.36,4.18,.14Z"/></g><g><g><path class="c" d="M192.03,32.85c-1.14-.97-2.32-1.88-3.52-2.76,1.43-2.14,2.57-4.6,3.38-7.48,1.82-6.46-5.27-13.17-11.48-12.23-3.81,.58-7.25,1.61-10.35,3.25-3.99-8.21-14.96-13.9-22.83-7.89-7.16,5.47-6.25,13.11-2.87,20.06-3.36,1.26-5.93,3.19-8.59,5.78-6.88,6.69,.54,18.62,9.28,17.6,3.03-.35,6.05-.9,9.02-1.66,.23,1.3,.61,2.61,1.24,3.94,2.46,5.2,7.07,8.65,12.77,9.39,6.48,.85,11.5-3.67,12.12-9.76,1.1,.11,2.2,.22,3.32,.29,9.9,.57,17.06-11.29,8.51-18.53Z"/><path class="i" d="M172.07,29.42c5-2.21,10.18-5.55,5.94-9.53-3.67-3.45-9.61,.02-13.78,3.49-.92-3.41-2.86-5.4-6.17-6.93-1.43-.66-3.56,.23-3.68,1.96-.25,3.65,.69,6.56,2.54,8.98-3.19,1.15-6.24,2.85-9.03,4.61-2.58,1.63-1.37,5.59,1.4,6.1,3.85,.72,7.41-.22,10.79-1.78,.1,3.11,.97,6.11,2.7,8.93,.9,1.47,3.32,1.19,3.96-.36,1.09-2.62,1.2-5.12,.82-7.63,2.57,1.43,5.32,2.49,8.33,3.22,1.37,.33,2.71-1.06,2.54-2.39-.57-4.36-3.07-6.96-6.37-8.67Z"/></g><path class="e" d="M169.09,33.26c-.51-.74-.82-1.26-1.61-1.75-.69-.43-1.39-.8-2.1-1.2-.11-.06-.23-.14-.37-.22-.06-.24-.17-.45-.33-.63,.27-.8-.59-1.82-1.56-1.52-1.97,.61-3.66,1.42-5.32,2.66-1.33,1-3.3,2.32-3.47,4.09-.06,.66,.46,1.45,1.22,1.3,1.66-.32,2.72-1.86,4.02-2.86,.29-.23,.61-.43,.91-.65-.08,.28-.15,.55-.2,.81-.31,1.56-.29,4.23,1.49,4.98,1.96,.82,2.45-1.44,2.4-2.86-.01-.35-.01-.69,0-1.03,1.27,1.05,2.68,1.33,4.31,.82,.8-.25,1.05-1.28,.6-1.94Z"/></g><g><g><path class="c" d="M284.66,87.4c4.54-2.92,8.11-6.56,10.81-10.81,5.36,4.13,11.94,6.27,17.42,1.88,6.93-5.55,3.41-11.42-2.4-16.01,.86-.61,1.7-1.25,2.53-1.94,6-5.04,2.88-14.62-5.29-14.27-3.65,.16-7.16,.83-10.5,1.96-.48-1.99-1-3.98-1.62-5.95-2.18-6.99-11.61-6.24-14.65-.55-1.65,3.09-2.33,6.66-2.14,10.22-2.22,.2-4.44,.74-6.57,1.5-4.23,1.52-4.82,6.93-1.71,9.8,1.9,1.75,3.96,3,6.13,3.8-3.4,6.15-5.95,13.08-1.7,18.66,2.35,3.08,6.42,3.81,9.69,1.7Z"/><path class="i" d="M290.39,68.05c.84-.78,.85-1.36,.1-1.75,.83,.47,1.65,.93,2.5,1.37,3.16,1.68,9.97,6.49,13.17,2.63,.78-.94,.8-2.68-.3-3.43-2.34-1.61-4.73-3.03-7.21-4.3,2.08-.91,4.08-1.99,6.02-3.27,1.91-1.26,1.05-4.18-1.05-4.58-3.81-.73-7.94,.27-10.67,2.87,1.2-3.5,.49-6.31-2.1-9.02-1.09-1.14-3.11-.19-3.31,1.23-.38,2.6-.32,5.08,.16,7.53-2.31-.43-4.65-.28-7.16,.37-1.69,.44-2.21,3.2-.73,4.17,1.91,1.26,3.8,2.12,5.81,2.66-2.21,2.79-4.02,5.82-5.47,9.16-1.03,2.37,1.58,4.17,3.63,3.03,2.09-1.17,3.49-2.65,4.71-4.73,.66-1.11,1.64-2.62,1.91-3.92Z"/></g><path class="e" d="M300.17,63.05c.73-.14,1.39-.38,1.89-.72,.77-.51,.77-1.64,.1-2.23-.8-.69-2.1-1.13-3.47-1.28,.41-.39,.81-.79,1.13-1.24,.74-1.06-.16-2.72-1.53-2.17-2.61,1.03-4.61,3.52-6.62,5.41-1.01,.95,.51,2.45,1.59,1.74,.06-.04,.12-.07,.18-.11,.1,.17,.23,.32,.4,.42,1.37,.85,2.65,1.91,3.86,2.97,1.14,1,1.94,2.07,3.42,2.51,.89,.27,1.77-.73,1.66-1.56-.2-1.54-1.26-2.76-2.61-3.74Z"/></g><g><g><path class="c" d="M232.08,100.79c.71-.24,1.42-.45,2.12-.7,10.01-3.65,6.35-18.79-4.15-17.97-1.42,.11-2.84,.24-4.26,.38-.27-2.28-1-4.62-2.34-7.06-3.73-6.78-12.77-3.31-15.08,2.52-3.16-1.64-6.7-2.23-10.25-.99-5,1.74-7.54,6.95-6.09,12.04,.53,1.86,1.58,3.5,2.87,5-3.39,2.5-6.19,5.5-6.8,9.7-.59,4.06,1.54,7.38,4.96,9.3,3.59,2.02,6.96,1.45,10.7,.15,2.06-.72,4.09-1.7,6.05-2.64,.05-.03,.12-.06,.19-.09,.8,1.76,1.69,3.52,2.83,4.8,3.36,3.8,7.7,6.28,12.83,6.59,7.3,.45,11.67-5.17,10-12.16-.77-3.22-2-6.17-3.6-8.87Z"/><path class="i" d="M220.09,96.14c3.82-.42,7.46-1.4,10.75-3.8,2.4-1.75,.83-5.09-1.88-5.08-3.51,.02-6.93,.4-10.32,1.05,.54-1.12,1.05-2.26,1.52-3.44,.5-1.24,.17-2.39-.74-3.31-4.23-4.27-7.12,1.82-7.96,6.54-2.33-2.31-6.24-3.84-8.58-4.88-2.17-.96-4.3,1.17-3.61,3.35,1.38,4.32,4.98,5.26,8.37,6.91-2.83,1.62-5.52,3.43-8.05,5.57-2.05,1.72-1.08,5.37,1.88,5.08,4.24-.42,7.68-2.08,10.45-4.81,2.83,4.9,7.78,12.24,11.99,9.77,4.3-2.51-.13-8.61-3.81-12.94Z"/></g><path class="e" d="M215.59,94.75l-1.21-1.06c.1-.2,.14-.42,.14-.64,.36-.3,.73-.59,1.1-.83,.4-.27,.84-.5,1.27-.72,.51-.27,.87-.71,1.37-.97,.74-.37,1.13-1.76,.08-2.08-.75-.23-1.57-.57-2.35-.45-.86,.13-1.67,.52-2.36,1.04-1.07,.81-1.75,1.74-2.12,2.89-2.08,.47-4.42,1.78-4.54,3.89-.05,.79,.5,1.6,1.39,1.48,.98-.13,1.85-.75,2.64-1.31,.64-.46,1.34-.84,2.03-1.22,.38,.42,.76,.85,1.14,1.27,.68,.75,1.21,1.56,2.25,1.74,.45,.08,.96-.33,.87-.81-.2-1.05-.91-1.53-1.7-2.22Z"/></g><g><g><path class="c" d="M359.31,244.41c1.42-1.7,2.7-3.59,3.82-5.68,3.73-6.92-4.28-14.72-11.2-12.08-1.88,.71-3.72,1.5-5.54,2.32-1.94-3.58-4.99-6.71-9.08-9.19-7.22-4.38-14.96,4.71-12.54,11.63,.46,1.32,.95,2.63,1.46,3.93-1.93,.32-3.82,.82-5.59,1.48-7.58,2.85-6.12,13.62,1.48,15.2,.76,.16,2.05,.29,3.5,.45-1.99,3.42-3.01,7.1-3.23,11.04-.45,8.15,8.46,12.62,14.39,6.61,2.82-2.85,5.32-5.93,7.54-9.2,7.72,5.08,17.3,8.02,20.45-2.32,1.82-5.98-.94-10.72-5.47-14.19Z"/><path class="i" d="M346.83,242.82c2.51-1.32,5.16-2.25,8.09-2.8,2.18-.41,3.15-2.52,2.04-4.44-3.07-5.32-9.86-.8-13.78,2.85-.37,.21-.74,.44-1.11,.66,.21-4.41-.82-11.27-6.06-10-4.19,1.02-2.58,5.49-.79,9.19-3.09-.19-6.16,.27-9.25,1.37-2.03,.72-2.46,3.48-.84,4.85,3.32,2.81,6.23,2.33,9.63,2.25-.31,.66-.58,1.32-.73,1.59-.86,1.59-1.82,3.16-2.6,4.79-1.02,2.13-1.48,3.29-.65,5.55,.34,.93,1.2,1.66,2.19,1.8,4.9,.73,7.59-5.61,9.17-10.47,2.78,2.13,5.74,3.92,9,5.4,2.34,1.07,4.33-1.24,3.74-3.47-1.17-4.49-4.28-7.18-8.04-9.12Z"/></g><path class="e" d="M348.58,244.36c-1.01-.57-2.33-.35-3.46-.28-.72,.05-1.46,.14-2.19,.27-.08-.2-.15-.39-.21-.6-.19-1.36-.54-2.7-1.17-3.91-.42-.82-1.17-1.36-2.13-1.14-.8,.18-1.62,1.06-1.42,1.95,.03,.15,.08,.3,.11,.46,.23,.98,.49,1.92,.92,2.8-.24-.03-.48-.03-.71-.05-1.15-.43-2.17-.13-3.31,.15-1.84,.45-1.12,3.66,.75,3.25,1.11-.24,2.22-.32,3.32-.25,.21,1.46,.53,2.78,1.51,3.97,.49,.59,1.5,.45,1.64-.37,.16-.91,.08-1.74-.11-2.57,1.12,.08,2.27-.03,3.38-.2,1.1-.17,2.47-.23,3.32-1,.84-.75,.79-1.91-.23-2.48Z"/></g><g><g><path class="i" d="M315.17,70.24c2.49,2.34,4.59,4.83,6.39,7.46,4.32-5.38,10.02-8.88,16.89-6.46,3.85,1.36,4.69,6.24,3.43,9.56-1.9,4.98-3.9,9.81-6.21,14.52,4.56,.87,9.03,2.13,13.53,3.85,6.46,2.47,4.43,10.96-.73,13.32-3.26,1.49-7.04,1.89-10.8,1.41,.66,3.29,.9,6.6,.81,9.52-.1,3.4-2.39,7.63-6.44,7.43-8.88-.43-12.31-8.59-14.22-16.91-5.91,1.82-12.24,1.84-18.5-.1-5.86-1.81-8.44-7.82-4.63-12.99,2.94-4,6.75-6.93,11.02-8.74-2.92-5.15-4.4-10.85-2.97-17.45,1.15-5.33,8.1-8.51,12.43-4.43Z"/><path class="c" d="M315.55,82.67c2.66,2.74,4.77,5.67,6.31,8.94,1.44-2.11,2.99-4.13,4.72-6.08,2.1-2.37,5.31-.36,5.14,2.44-.21,3.48-1.81,7.63-4.58,10.06,.13,.09,.26,.16,.38,.25,3.86-.83,7.15,.18,10.16,3.05,1.73,1.64,.72,4.11-1.47,4.52-2.2,.41-4.23,.18-6.16-.42,.62,1.94,1.07,3.94,1.38,6.04,.36,2.53-3.1,4.22-4.93,2.51-3.09-2.89-5.34-6.13-6.86-9.91-3.56,1.12-7.21,1.12-10.95-.02-1.93-.59-3.51-3.13-1.74-4.88,2.14-2.12,4.67-3.47,7.33-3.95-1.98-2.96-3.38-6.19-3.65-10.04-.17-2.38,3.06-4.41,4.92-2.5Z"/></g><path class="e" d="M321.79,90.08c1.51,1.34,2,3.63,2.09,5.59,0,.08,0,.15,0,.23,.66-1.2,1.12-2.33,2.21-3.22,.65-.52,1.89-.15,2.08,.69,.42,1.83-.34,3.51-1.55,4.9,1.6,.21,3.64,.31,4.6,1.8,.47,.72,.3,1.67-.41,2.17-1.44,1.03-3.39,.37-4.96-.02-1.05-.27-2.09-.6-3.11-.95-.12,.07-.25,.14-.37,.21-.98,.5-1.85-.23-1.82-1.04-.61-.52-.55-1.6,0-2.16-.12-.68-.23-1.37-.35-2.07-.27-1.56-1.01-3.22-.96-4.81,.04-1.26,1.48-2.27,2.57-1.31Z"/></g><g><g><path class="i" d="M335.08,162.41c1.48,.24,2.94,.53,4.39,.87,.69-2.48,1.81-4.95,3.47-7.44,3.71-5.59,13.43-4.59,16.76,.74,2.04,3.27,3.51,6.55,4.28,9.97,8.82-2.33,20.29,2.28,20.87,12.17,.52,8.99-5.86,13.28-13.34,15.25,1.23,3.37,1.45,6.58,1.22,10.28-.59,9.58-14.47,11.73-19.4,4.44-1.71-2.53-3.26-5.18-4.62-7.92-1.14,.67-2.38,1.23-3.79,1.62-5.55,1.53-11.17,.28-15.45-3.56-4.87-4.36-4.71-11.12-.5-15.55-.8-.76-1.6-1.53-2.38-2.33-6.89-7.14-2.57-20.3,8.51-18.53Z"/><path class="c" d="M339.97,176.14c-1.12,.74-1.29,2.66-.15,3.48,2.51,1.81,5.1,3.2,7.87,4.22-2.15,1.35-3.98,3.07-5.25,5.6-.76,1.5,.61,3.51,2.31,3.24,3.26-.52,6.11-1.82,8.53-3.77,1.01,3.58,2.63,6.89,5.68,9.34,2.2,1.76,5.99,.1,5.54-2.92-.49-3.27-1.18-6.69-2.39-9.86,3.05-.18,5.86-1.36,8.47-3.93,1.23-1.21,.52-3.41-.91-4.06-3.32-1.51-6.1-1.69-9.28-.16-.08-5.42-1.32-12.19-6.33-12.72-5.79-.62-4.94,5.48-3.35,10.72-3.45-1.38-7.05-1.59-10.73,.83Z"/></g><path class="e" d="M349.73,180.07c.89-.1,1.49-.2,2.38,.08,.77,.24,1.51,.53,2.27,.81,.12,.04,.25,.09,.4,.14,.22-.11,.46-.16,.69-.16,.43-.72,1.77-.74,2.17,.19,.82,1.89,1.31,3.71,1.45,5.77,.11,1.66,.4,4.02-.84,5.3-.46,.48-1.4,.6-1.78-.08-.84-1.46-.37-3.28-.45-4.92-.02-.37-.07-.74-.1-1.12-.16,.24-.32,.47-.48,.68-.98,1.25-3.02,2.98-4.75,2.12-1.9-.95-.5-2.8,.61-3.69,.28-.22,.54-.44,.79-.67-1.62-.28-2.76-1.16-3.43-2.74-.33-.77,.29-1.63,1.08-1.72Z"/></g><g><g><path class="c" d="M395.25,133.08c2.39-.54,4.74-1.33,7.03-2.42,4.01-1.9,6.19-6.51,4.4-10.76-2.72-6.45-8.91-7.99-15.44-7.8,.29-3.77-.16-7.66-1.26-11.64-2.14-7.69-12.25-5.26-15.09,.16-.94,1.79-1.84,3.78-2.61,5.86-2.47-1.44-5.02-2.59-7.29-3.44-4.18-1.56-9.97,3.03-7.4,7.56,2.35,4.14,4.95,8.48,8.14,12.22-3.06,2.35-5.82,5.09-8.37,8.1-4.67,5.49,1.23,12.26,7.17,12.06,4.28-.14,8.2-1.21,11.76-3,1.7,3.08,3.94,5.78,6.84,7.49,3.44,2.03,6.35,1.84,9.69-.15,5.45-3.24,4.96-8.76,2.44-14.23Z"/><path class="i" d="M387.88,134.83c-.56-2.92-1.47-5.59-2.8-8.09,4.94,.06,10.91-.58,10.8-5.08-.12-4.69-5.7-4.41-10.2-3.39,1.31-4.34,1.25-10.61-4.22-9.95-3.55,.43-4.76,3.53-4.91,6.94-2-1.63-4.1-3.14-6.34-4.53-1.84-1.14-4.72,.09-4.27,2.54,.91,4.96,3.94,8.03,7.77,10.48-4.03,2.57-9.2,6.49-5.55,9.93,2.92,2.75,7.04-.46,10.01-3.61,1.28,2.72,3.09,5.07,5.58,7.22,1.68,1.45,4.55-.32,4.14-2.46Z"/></g><path class="e" d="M385.54,125.3c-.74-.83-1.96-1.25-2.98-1.65-.07-.03-.14-.04-.21-.06,.74-.25,1.58-.26,2.14-.84,.56-.57,.65-1.39-.03-1.93-.62-.5-1.42-.5-2.2-.33,.28-.87,.7-1.8,.55-2.7-.14-.87-1.2-1.69-2.09-1.19-1.24,.7-1.75,2.08-1.87,3.47-.07,.82-.01,1.49,.17,2.16-.26,.27-.51,.55-.74,.86-.83,1.14,.64,2.55,1.76,1.71,.57,.28,1.14,.56,1.73,.81,.93,.4,1.95,1.03,2.96,1.1,.7,.05,1.32-.81,.79-1.4Z"/></g><g><g><path class="i" d="M383.52,259.35c-.55-3.97-.23-7.74,.86-11.32-4.92-1.02-9.31-3.68-9.49-8.89-.23-6.59,4.78-7.45,10.17-6.4-.07-.78-.12-1.56-.13-2.36-.07-5.82,6.84-8.7,10.59-3.93,1.68,2.13,2.99,4.43,3.98,6.86,1.35-.69,2.72-1.36,4.13-1.97,4.99-2.16,9.13,3.52,7.4,7.98-.94,2.42-2.62,4.54-4.72,6.15,.96,1.35,1.74,2.86,2.34,4.43,1.19,3.12-1.57,6.07-4.69,5.7-1.9-.22-3.61-.77-5.1-1.61-1.82,4.89-4.48,9.68-9.68,9.99-2.87,.17-5.25-1.77-5.65-4.63Z"/><path class="c" d="M391.63,246.76c.03-.85,.35-1.13,.94-.91-.66-.24-1.33-.48-1.98-.74-2.47-.97-8.48-2.47-7.85-6.14,.15-.89,1.12-1.74,2.07-1.49,2.04,.54,4,1.19,5.91,1.97-.5-1.61-.85-3.26-1.08-4.97-.22-1.68,1.84-2.62,3.09-1.63,2.26,1.79,3.69,4.6,3.55,7.4,1.39-2.37,3.31-3.33,6.1-3.18,1.17,.06,1.61,1.66,.91,2.46-1.28,1.47-2.71,2.64-4.31,3.56,1.36,1.09,2.41,2.48,3.26,4.21,.57,1.16-.73,2.79-2,2.43-1.64-.47-3.03-1.11-4.31-1.98-.5,2.6-1.33,5.08-2.51,7.51-.84,1.72-3.11,1.13-3.46-.58-.35-1.75-.2-3.25,.38-4.94,.31-.91,.68-2.19,1.28-2.97Z"/></g><path class="e" d="M389.71,238.84c-.27-.48-.46-.97-.51-1.41-.08-.68,.55-1.23,1.21-1.13,.78,.11,1.66,.63,2.4,1.33,.02-.42,.05-.84,.15-1.24,.24-.93,1.61-1.22,1.96-.19,.68,1.97,.25,4.3,.16,6.35-.05,1.03-1.62,.9-1.75-.05-.17-.13-.31-.13-.46-.17-1.14-.36-2.36-.57-3.54-.74-1.11-.16-2.1-.09-3.07-.71-.58-.37-.44-1.35,.07-1.69,.97-.63,2.16-.63,3.36-.34Z"/></g><g><g><path class="i" d="M242.08,157.22c-.04-2.45,.19-4.92,.71-7.4,.91-4.34,4.89-7.54,9.43-6.79,6.91,1.13,9.85,6.8,11.19,13.2,3.6-1.16,7.49-1.64,11.61-1.49,7.97,.28,7.98,10.68,3.37,14.71-1.53,1.33-3.24,2.67-5.09,3.9,1.98,2.07,3.69,4.28,5.05,6.29,2.5,3.7-.62,10.4-5.62,8.96-4.57-1.32-9.4-2.84-13.78-5.06-1.57,3.52-3.59,6.85-5.92,10.03-4.25,5.82-12.21,1.67-13.4-4.15-.86-4.19-.74-8.25,.17-12.13-3.39-.94-6.54-2.48-8.88-4.9-2.77-2.87-3.27-5.74-2.12-9.46,1.87-6.06,7.36-6.87,13.27-5.7Z"/><path class="c" d="M242.1,164.79c2.97-.14,5.78,.13,8.52,.84-1.22-4.79-1.99-10.74,2.42-11.69,4.58-.98,5.62,4.52,5.68,9.13,3.92-2.29,10.03-3.69,10.66,1.78,.41,3.56-2.32,5.46-5.6,6.4,2.05,1.57,4.01,3.25,5.89,5.1,1.54,1.52,1.01,4.61-1.47,4.75-5.04,.27-8.73-1.96-12.01-5.11-1.56,4.52-4.16,10.46-8.36,7.72-3.35-2.19-1.2-6.95,1.17-10.58-2.95-.61-5.65-1.82-8.32-3.74-1.81-1.3-.75-4.5,1.42-4.6Z"/></g><path class="e" d="M251.91,164.84c.98,.52,1.67,1.61,2.3,2.51,.04,.06,.07,.13,.11,.18,.07-.78-.12-1.6,.31-2.28,.43-.68,1.2-.95,1.89-.42,.63,.49,.81,1.27,.83,2.06,.78-.48,1.58-1.1,2.5-1.17,.88-.06,1.93,.77,1.65,1.75-.39,1.37-1.62,2.19-2.94,2.63-.78,.26-1.45,.36-2.14,.34-.2,.31-.42,.62-.67,.92-.91,1.07-2.63-.03-2.08-1.31-.4-.49-.81-.98-1.19-1.49-.61-.81-1.46-1.65-1.76-2.62-.21-.67,.48-1.47,1.18-1.1Z"/></g><g><g><path class="i" d="M290.58,214.57c-.28-.69-.59-1.37-.85-2.07-3.76-9.97,10.11-17.07,16.33-8.57,.84,1.15,1.67,2.31,2.49,3.47,1.9-1.29,4.15-2.26,6.88-2.83,7.58-1.59,10.84,7.53,7.92,13.08,3.31,1.32,6.06,3.63,7.44,7.13,1.94,4.92-.35,10.25-5.17,12.47-1.76,.81-3.69,1.08-5.67,1.08,.31,4.2-.14,8.28-2.92,11.48-2.69,3.09-6.6,3.64-10.29,2.3-3.88-1.41-5.64-4.33-7.09-8.02-.8-2.03-1.38-4.21-1.94-6.31-.01-.06-.04-.13-.06-.2-1.86,.54-3.77,1.01-5.48,.98-5.07-.08-9.78-1.74-13.37-5.43-5.1-5.24-3.69-12.23,2.7-15.51,2.94-1.51,5.98-2.51,9.08-3.05Z"/><path class="c" d="M301.92,220.64c-2.17-3.17-3.8-6.57-4.13-10.63-.24-2.96,3.32-3.95,5.08-1.88,2.28,2.67,4.22,5.52,5.93,8.51,.5-1.14,1.03-2.27,1.62-3.39,.62-1.19,1.7-1.69,3-1.6,6,.43,3.26,6.59,.23,10.3,3.27,.26,6.98,2.22,9.3,3.33,2.14,1.02,1.92,4.02-.18,4.92-4.18,1.77-7.23-.35-10.69-1.84,.62,3.2,.99,6.42,1.03,9.73,.03,2.67-3.37,4.32-5.08,1.88-2.44-3.49-3.43-7.18-3.17-11.06-5.56,1.04-14.35,2.08-15.23-2.72-.9-4.89,6.62-5.51,12.3-5.54Z"/></g><path class="e" d="M305.91,223.14l1.59,.23c.09-.21,.23-.38,.39-.52,0-.47-.03-.94-.09-1.38-.06-.48-.17-.96-.28-1.43-.13-.57-.03-1.12-.16-1.67-.2-.8,.6-2,1.52-1.41,.67,.42,1.45,.82,1.87,1.49,.46,.74,.7,1.61,.75,2.47,.09,1.34-.18,2.46-.81,3.49,1,1.89,1.54,4.51,.01,5.98-.57,.55-1.54,.66-2.03-.09-.54-.83-.64-1.89-.73-2.86-.07-.78-.24-1.56-.4-2.33-.57-.01-1.14-.03-1.71-.04-1.01-.02-1.97,.1-2.78-.57-.35-.29-.37-.94,.05-1.19,.93-.54,1.76-.31,2.79-.16Z"/></g><g><g><path class="i" d="M231.99,222.44c.37-2.19,.96-4.39,1.81-6.6,2.82-7.34,13.95-6.35,16.46,.62,.68,1.89,1.29,3.8,1.85,5.71,3.98-.86,8.35-.59,12.89,.89,8.03,2.62,6.18,14.41-.64,17.09-1.3,.51-2.62,.99-3.94,1.45,1.02,1.67,1.87,3.43,2.52,5.2,2.78,7.6-6.34,13.52-12.49,8.79-.62-.47-1.55-1.37-2.62-2.36-1.3,3.74-3.42,6.91-6.27,9.65-5.89,5.65-15.08,1.81-14.39-6.61,.33-4,1.03-7.9,2.05-11.72-8.88-2.55-17.36-7.89-11.57-17.02,3.35-5.28,8.74-6.27,14.33-5.11Z"/><path class="c" d="M241.33,230.86c-.63-2.76-1.66-5.38-3.15-7.96-1.11-1.92-.14-4.03,2.04-4.44,6.03-1.14,7.03,6.95,6.83,12.31,.08,.42,.15,.85,.22,1.28,3.21-3.04,9.08-6.72,11.53-1.92,1.96,3.85-2.48,5.54-6.46,6.59,2.16,2.22,3.81,4.84,4.99,7.9,.78,2.01-1.03,4.14-3.13,3.8-4.29-.69-5.83-3.21-7.98-5.84-.3,.67-.62,1.3-.73,1.59-.64,1.69-1.21,3.44-1.94,5.1-.96,2.16-1.53,3.27-3.78,4.11-.93,.35-2.04,.17-2.8-.49-3.75-3.24-.7-9.41,1.96-13.78-3.43-.72-6.71-1.8-9.96-3.31-2.33-1.08-1.88-4.09,.19-5.1,4.17-2.04,8.24-1.43,12.16,.15Z"/></g><path class="e" d="M239.02,230.54c1.1,.4,1.79,1.54,2.47,2.44,.44,.58,.85,1.2,1.23,1.84,.2-.07,.39-.14,.59-.23,1.15-.74,2.4-1.34,3.73-1.67,.9-.22,1.79,0,2.25,.87,.38,.73,.25,1.92-.56,2.35-.14,.07-.28,.14-.42,.21-.89,.46-1.78,.88-2.72,1.13,.18,.16,.34,.34,.5,.51,1.08,.59,1.51,1.56,2.04,2.61,.86,1.68-2.04,3.24-2.96,1.55-.54-1-1.2-1.89-1.97-2.68-1.24,.79-2.46,1.41-3.99,1.44-.77,.02-1.31-.84-.78-1.49,.59-.71,1.27-1.2,2.02-1.59-.8-.8-1.46-1.74-2.05-2.69-.59-.94-1.43-2.02-1.41-3.17,.02-1.13,.93-1.84,2.03-1.45Z"/></g><path class="c" d="M369.81,95.41c2.32,.64,4.05-3.06,2.01-4.38-1.19-.78-2.41-1.45-3.66-2.01,3.24-1.79,5.75-4.24,3.53-7.12-.66-.86-1.87-1.35-2.92-.91-2.68,1.11-4.71,2.71-6.32,4.94-.19,.07-.38,.16-.56,.23-.15-1.83-1.02-3.46-2.62-4.89-1.34-1.2-3.02,.11-3.06,1.61-.02,.84,.06,1.64,.17,2.42-1.68-.45-3.43-.61-5.28-.5-1.8,.11-2.83,2.84-1.22,3.93,2.3,1.55,4.59,2.49,7.12,2.93-.77,2.27-1.26,4.58-1.46,7.03-.17,2.09,2.55,3.81,4.03,1.85,1.59-2.1,2.71-4.33,3.35-6.79,2.31,.52,4.61,1.04,6.89,1.67Z"/><path class="c" d="M268.49,252.5c-.03,.95,.3,1.31,.98,1.1-.77,.21-1.53,.43-2.29,.67-2.86,.88-9.76,2.06-9.36,6.25,.1,1.02,1.11,2.06,2.21,1.86,2.34-.43,4.6-1.01,6.82-1.72-.7,1.77-1.24,3.6-1.63,5.51-.39,1.88,1.85,3.1,3.34,2.09,2.7-1.83,4.54-4.87,4.62-8.03,1.36,2.78,3.45,4.03,6.59,4.1,1.32,.03,1.95-1.73,1.23-2.69-1.31-1.76-2.82-3.2-4.55-4.37,1.62-1.11,2.92-2.59,4.03-4.46,.74-1.26-.59-3.2-2.04-2.9-1.88,.39-3.51,1-5.01,1.87-.35-2.96-1.07-5.83-2.19-8.67-.8-2.01-3.41-1.53-3.95,.36-.55,1.93-.5,3.64,0,5.59,.27,1.05,.58,2.52,1.19,3.45Z"/></g><g><g><path class="f" d="M145.25,337.7c2.71-11.42,30.93-90.09,34.18-90.09s61.42,126.1,60.95,131.39c-.47,5.28-12.84,51.07-12.84,51.07l-65.2-58.09-17.09-34.27Z"/><path class="d" d="M145.25,337.7c.85-3.56,4.18-13.67,8.46-25.9l23.92,56.24,34,30.23,19.76-42.33c5.51,12.73,9.12,21.73,9,23.07-.47,5.28-12.84,51.07-12.84,51.07l-65.2-58.09-17.09-34.27Z"/><path class="f" d="M271.66,310.08c2.24,2.24-16.94,135.87-19.65,136.99-2.71,1.12-49.25,35.33-52.51,29.8-3.26-5.53,41.49-134.34,42.86-137.48,1.37-3.14,29.3-29.3,29.3-29.3Z"/><path class="d" d="M267.8,349.16l-28.23-1.98c1.59-4.55,2.61-7.37,2.8-7.8,.79-1.82,10.46-11.33,18.48-19.03l9.45,8.71c-.67,5.83-1.52,12.68-2.49,20.1Z"/><path class="f" d="M93.16,436.45c-4.34-.58-61.85-10.38-62.94-9.01-1.08,1.38,38.52,42.53,39.61,45.01,1.08,2.48,34.63,5.59,39.01,6,4.38,.41-15.68-42-15.68-42Z"/><path class="c" d="M271.66,310.08s43.41,33.41,42.86,35.12c-.54,1.7-70.53-3.57-72.16-5.82-1.63-2.25,25.83-31.98,29.3-29.3Z"/><path class="d" d="M108.13,471.72c1.35,4.11,1.84,6.84,.71,6.74-4.38-.41-37.93-3.52-39.01-6-1.09-2.48-40.69-43.64-39.61-45.01l48.29,41.63,29.62,2.65Z"/><path class="d" d="M201.36,465.32c3.46-13.57,10.88-37,18.47-60.01l33.4,37.91c-.54,2.37-.96,3.74-1.22,3.85-1.89,.78-25.01,17.59-39.99,25.87l-10.65-7.62Z"/><path class="c" d="M252.01,447.06s-44.37,29.49-47.08,31.4c-2.71,1.91-95.49,1.94-98.2-.52-2.71-2.45-43.95-75.16-43.41-77.87,.54-2.71,51.54-144.87,53.17-144.87,.78,0,56.79,117.03,56.79,117.03l78.73,74.83Z"/><path class="d" d="M116.49,255.2s.13,.09,.28,.25c-9.36,36.07-37.53,142.09-37.53,142.09l35.45,73.94,74.97,8.03c-27.11,.73-80.87,.29-82.93-1.57-2.71-2.45-43.95-75.16-43.41-77.87,.54-2.71,51.54-144.87,53.17-144.87Z"/></g><ellipse class="j" cx="157.66" cy="501.19" rx="144.96" ry="9.06"/></g><path class="c" d="M568.42,172.9h.5c2.77,0,5.43-2.44,5.3-5.3-.13-2.87-2.33-5.3-5.3-5.3h-.5c-2.77,0-5.43,2.44-5.3,5.3,.13,2.87,2.33,5.3,5.3,5.3h0Z"/></svg>