<svg width="35" height="35" viewBox="0 0 35 35" fill="none" xmlns="http://www.w3.org/2000/svg">
<path d="M28.9844 5.46875H6.01562C5.00068 5.46984 4.02761 5.8735 3.30993 6.59118C2.59225 7.30886 2.18859 8.28193 2.1875 9.29688V25.7031C2.18859 26.7181 2.59225 27.6911 3.30993 28.4088C4.02761 29.1265 5.00068 29.5302 6.01562 29.5312H28.9844C29.9993 29.5302 30.9724 29.1265 31.6901 28.4088C32.4077 27.6911 32.8114 26.7181 32.8125 25.7031V9.29688C32.8114 8.28193 32.4077 7.30886 31.6901 6.59118C30.9724 5.8735 29.9993 5.46984 28.9844 5.46875V5.46875ZM28.015 11.8009L18.1713 19.4571C17.9793 19.6064 17.7431 19.6874 17.5 19.6874C17.2569 19.6874 17.0207 19.6064 16.8287 19.4571L6.98496 11.8009C6.86931 11.7135 6.77216 11.6041 6.69917 11.4789C6.62619 11.3537 6.57881 11.2152 6.5598 11.0715C6.54079 10.9279 6.55052 10.7818 6.58843 10.6419C6.62634 10.5021 6.69168 10.3711 6.78063 10.2567C6.86959 10.1423 6.9804 10.0467 7.10663 9.97547C7.23285 9.90425 7.37197 9.85883 7.5159 9.84184C7.65983 9.82485 7.8057 9.83664 7.94503 9.87652C8.08437 9.91639 8.21439 9.98356 8.32754 10.0741L17.5 17.2081L26.6725 10.0741C26.9018 9.90091 27.1901 9.82495 27.4751 9.86265C27.76 9.90035 28.0186 10.0487 28.1951 10.2756C28.3715 10.5025 28.4515 10.7897 28.4178 11.0751C28.3841 11.3606 28.2394 11.6213 28.015 11.8009Z" fill="white"/>
</svg>
