<svg width="20" height="20" viewBox="0 0 20 20" fill="none" xmlns="http://www.w3.org/2000/svg">
<g clip-path="url(#clip0_57_7)">
<path d="M10.0003 0C7.30694 0 5.09994 2.2006 5.09994 4.8864C5.09994 5.927 5.43234 6.894 5.99495 7.689L9.40235 13.5792C9.87955 14.2026 10.1963 14.084 10.5933 13.546L14.3513 7.1508C14.4273 7.0134 14.4871 6.8668 14.5389 6.7176C14.7774 6.13654 14.9 5.51449 14.8999 4.8864C14.8999 2.2006 12.6937 0 10.0003 0ZM10.0003 2.2894C11.4505 2.2894 12.6039 3.4402 12.6039 4.8864C12.6039 6.3324 11.4505 7.4824 10.0003 7.4824C8.54994 7.4824 7.39595 6.3324 7.39595 4.8864C7.39595 3.4402 8.54994 2.2894 10.0003 2.2894ZM5.62695 10C5.52543 9.99998 5.42512 10.022 5.33298 10.0647C5.24084 10.1073 5.15907 10.1694 5.09334 10.2468L0.166344 16.05C0.0798132 16.1519 0.0242519 16.2764 0.00622734 16.4088C-0.0117972 16.5412 0.00846841 16.6761 0.0646291 16.7973C0.12079 16.9186 0.210498 17.0213 0.32315 17.0932C0.435803 17.1651 0.566691 17.2033 0.700345 17.2032L19.3003 17.1902C19.4339 17.1901 19.5646 17.1518 19.6771 17.0799C19.7896 17.0079 19.8792 16.9052 19.9352 16.784C19.9913 16.6628 20.0115 16.5281 19.9935 16.3958C19.9755 16.2634 19.92 16.139 19.8335 16.0372L14.9179 10.2468C14.8522 10.1694 14.7705 10.1073 14.6783 10.0647C14.5862 10.022 14.4859 9.99998 14.3843 10H13.6043C13.3303 10.4666 13.0579 10.9338 12.7835 11.4H14.0601L17.7881 15.7914L2.21354 15.802L5.95074 11.4H7.21714L6.40734 10H5.62695Z" fill="white"/>
</g>
<defs>
<clipPath id="clip0_57_7">
<rect width="20" height="20" fill="white"/>
</clipPath>
</defs>
</svg>
