<?xml version="1.0" encoding="UTF-8"?><svg id="a" xmlns="http://www.w3.org/2000/svg" xmlns:xlink="http://www.w3.org/1999/xlink" viewBox="0 0 162.42 151.77"><defs><style>.c{fill:#fff;}.d{fill:#a32424;}.e{fill:#0a0929;}.f{fill:url(#b);}.g{fill:#ffc4cb;}</style><linearGradient id="b" x1="75.88" y1="0" x2="75.88" y2="151.77" gradientTransform="matrix(1, 0, 0, 1, 0, 0)" gradientUnits="userSpaceOnUse"><stop offset="0" stop-color="#db3030"/><stop offset=".19" stop-color="#d42e2e"/><stop offset=".46" stop-color="#c22a2a"/><stop offset=".77" stop-color="#a62323"/><stop offset="1" stop-color="#8c1e1e"/></linearGradient></defs><circle class="f" cx="75.88" cy="75.88" r="75.88"/><g><path class="e" d="M142.62,111.08c-4.46-3.9-11.79-6.12-18.64-7.61-6.85-1.5-13.72-3.87-19.24-8.28-3.17-2.53-4.63-6.51-8.09-8.85-4.91-3.32-11.02-3.82-16.69-4.86-1.48-.27-2.95-.57-4.42-.89-.52-2.62-2.17-5.13-3.59-7.3-1.19-1.81-3.25-3.7-2.83-6.04,.4-2.24,2.1-4.29,2.99-6.37,1.52-.05,3.04-.08,4.56-.07,2,.01,4.27,.52,6.16-.18,.69-.26,.66-1.18,.06-1.5-1.7-.9-4.14-.61-6.02-.58-1.36,.02-2.31,.35-3.99-.21,.57-2.37-.7-4.27-2-6.54-2.18-3.83-5.55-6.32-6.31-10.92-.16-.96-1.35-.92-1.61-.05-1.01,3.35,.57,6.19,2.66,8.77,1.51,1.85,3.72,3.9,3.85,6.47,.13,2.69-1.94,5.23-3.06,7.5-1.5,3.04-1.84,5.68,.02,8.66,1.12,1.78,2.48,3.4,3.55,5.21,.39,.67,.71,1.38,1.02,2.1-3.59-.9-7.16-1.93-10.66-3.11-2.83-.95-5.98-1.79-8.52-3.41-2.98-1.9-3.38-4.93-3.79-8.16-.65-5.25-2.19-8.81-5.93-12.67-5.48-5.66-11.16-11.14-16.73-16.71-1.16-1.16-2.78,.79-1.64,1.95,4.89,4.97,9.78,9.95,14.66,14.92,.08,.09,.17,.17,.25,.26-3.19,2.83-8.72,6.14-13.8,6.98-4.67,.78-12.41-4.49-16.22-1.46-.67,.53-.3,1.59,.44,1.98,1.39,.72,1.68,.57,3.23,.48,2.27-.12,4.27,.08,6.45,.75,2.32,.72,3.87,1.26,6.3,.61,5.34-1.42,10.98-4.23,15.9-6.95,1.41,1.56,2.67,3.23,3.38,5.25,.88,2.49,.68,5.22,1.06,7.8,.65,4.44,2.85,7.28,6.87,9.28,5.42,2.69,11.36,4.71,17.17,6.38,6.37,1.83,13.04,2.48,19.37,4.37,1.82,.54,3.37,1.25,4.75,2.2-2.91,.7-5.67,1.89-8.49,3.1-1.96,.84-3.91,1.82-5.99,2.35-2.41,.62-4.29,.17-6.36-.6-.66-2.59-2.77-4.98-4.71-6.5-1.72-1.35-3.59,1.03-2.14,2.54,.78,.81,3.28,2.64,4.1,3.4-2.74-.93-7.2-2.76-10-3.42-3.73-.88-7.8-2.11-11.61-1.27-1.47,.32-2.03,1.52-.57,2.27,3.47,1.8,7,1.57,10.8,2.37,4.48,.94,9.44,2.69,13.77,4.09,8.81,2.83,15.67-3.85,23.7-6.09,.45,.5,.89,1.04,1.3,1.64,1.02,1.47,1.93,2.97,3.25,4.2,4.84,4.53,11.62,7.54,17.43,10.56,6.13,3.19,13.34,6.67,18.65,10.99,1.55,1.26,7.38-7.54,5.94-8.8Z"/><path class="c" d="M57.97,66.66c-.58-.4-1.18-.69-1.83-.87,.34-.33,.66-.68,.96-1.05,.37-.46-.1-.98-.61-.86-.63,.15-1.33,.57-1.69,1.15-.02-.02-.04-.04-.06-.06,.03-.73-.26-1.3-.87-1.76-.35-.26-.77,0-.78,.41,0,.41,.1,.78,.27,1.11-.37-.05-.75-.07-1.14-.06-.47,.01-.67,.7-.3,.98,.62,.47,1.29,.78,2.02,.94-.09,.68,.02,1.35,.35,2,.17,.33,.68,.54,.94,.16,.32-.46,.49-.96,.49-1.46,.6,.27,1.23,.42,1.95,.35,.44-.04,.71-.7,.3-.97Z"/><path class="c" d="M95.58,83.49c.93-.41,1.88-1.03,1.1-1.76-.68-.64-1.78,0-2.55,.65-.17-.63-.53-1-1.14-1.28-.26-.12-.66,.04-.68,.36-.05,.68,.13,1.21,.47,1.66-.59,.21-1.15,.53-1.67,.85-.48,.3-.25,1.03,.26,1.13,.71,.13,1.37-.04,2-.33,.02,.58,.18,1.13,.5,1.65,.17,.27,.61,.22,.73-.07,.2-.48,.22-.95,.15-1.41,.48,.27,.98,.46,1.54,.6,.25,.06,.5-.2,.47-.44-.1-.81-.57-1.29-1.18-1.61Z"/><path class="c" d="M39.37,44.07c-.39-.5-.82-.91-1.31-1.25,.94-.47,2-1.16,1.54-2-.48-.87-1.5-.28-2.25,.35-.17-.94-.79-2.12-1.76-1.47-.63,.42-.56,1.13-.25,1.78-.53-.11-1.08-.2-1.63-.24-.46-.04-.88,.47-.56,.89,.65,.85,1.52,1.13,2.48,1.22-.51,.87-1.1,2.11-.09,2.41,.81,.24,1.28-.77,1.54-1.65,.5,.39,1.07,.66,1.75,.82,.46,.11,.83-.5,.54-.86Z"/><path class="c" d="M26.38,55.72c.71-.08,1.38-.26,1.99-.7,.44-.32,.15-.94-.35-.94-.65,0-1.28,.07-1.91,.19,.1-.21,.19-.42,.28-.64,.09-.23,.03-.44-.14-.61-.78-.79-1.32,.34-1.47,1.21-.43-.43-1.15-.71-1.59-.9-.4-.18-.8,.22-.67,.62,.26,.8,.92,.97,1.55,1.28-.52,.3-1.02,.64-1.49,1.03-.38,.32-.2,.99,.35,.94,.78-.08,1.42-.39,1.93-.89,.52,.91,1.44,2.26,2.22,1.81,.79-.46-.02-1.59-.71-2.39Z"/><path class="c" d="M67.18,68.86c.46-.24,.95-.42,1.5-.52,.4-.08,.58-.47,.38-.82-.57-.98-1.82-.15-2.55,.53-.07,.04-.14,.08-.21,.12,.04-.82-.15-2.09-1.12-1.85-.78,.19-.48,1.02-.15,1.7-.57-.04-1.14,.05-1.71,.25-.38,.13-.46,.64-.16,.9,.61,.52,1.15,.43,1.78,.42-.06,.12-.11,.24-.14,.29-.16,.29-.34,.58-.48,.89-.19,.39-.27,.61-.12,1.03,.06,.17,.22,.31,.41,.33,.91,.14,1.4-1.04,1.7-1.94,.51,.39,1.06,.72,1.67,1,.43,.2,.8-.23,.69-.64-.22-.83-.79-1.33-1.49-1.69Z"/><g><g><path class="c" d="M31.9,69.14c.84,.5,1.64,1.09,2.62,1.31,1.18,.26,2.14,.07,3.18-.5,.88-.49,.87-1.95,.11-2.52-.84-.63-1.69-1.16-2.58-1.63,1.79-1.14,3.34-2.67,2.63-4.4-1.01-2.47-3.79-.91-5.95,.69-.49-2.45-1.63-4.86-4.02-3.48-1.66,.96-1.6,2.95-.8,4.74-.79-.05-1.61,.02-2.45,.2-.82,.17-1.61,.99-1.19,1.9,.66,1.44,2.16,1.89,3.75,2-1.21,1.91-1.93,4.23-.1,5.73,2.36,1.94,4.07-1.46,4.79-4.04Z"/><path class="g" d="M33.17,67.83c.71,.2,1.24-.94,.62-1.34-.37-.24-.74-.44-1.12-.62,.99-.55,1.76-1.3,1.08-2.18-.2-.26-.57-.41-.9-.28-.82,.34-1.45,.83-1.94,1.51-.06,.02-.11,.05-.17,.07-.05-.56-.31-1.06-.8-1.5-.41-.37-.93,.03-.94,.49,0,.26,.02,.5,.05,.74-.51-.14-1.05-.19-1.62-.15-.55,.03-.87,.87-.37,1.2,.7,.47,1.41,.76,2.18,.9-.24,.69-.39,1.4-.45,2.15-.05,.64,.78,1.17,1.24,.57,.49-.64,.83-1.33,1.03-2.08,.71,.16,1.41,.32,2.11,.51Z"/></g><path class="d" d="M31.48,66.21c-.09-.05-.19-.11-.28-.18,.12-.04,.25-.08,.37-.12,.16-.05,.33-.08,.49-.12,.18-.05,.32-.16,.5-.23,.13-.05,.17-.28,.01-.33-.18-.06-.37-.15-.56-.15-.22,0-.49,.09-.69,.16-.07,.03-.14,.08-.21,.11,.01-.17,.03-.35,.09-.52,.13-.42,.4-.75,.56-1.16,.07-.18-.06-.38-.26-.36-.96,.07-1.65,1.49-1.3,2.38-.15,.07-.23,.24-.18,.41,.12,.39,.52,.72,.82,.98,.36,.31,.7,.43,1.17,.42,.19,0,.35-.25,.27-.43-.2-.41-.42-.64-.8-.87Z"/></g><g><g><path class="c" d="M22.56,59.21c-.77-.58-1.57-1.05-2.39-1.42,1.29-1.46,2-3.22,.99-5.02-.56-1.01-1.97-1.01-2.83-.5-1.3,.77-2.55,1.56-3.75,2.43-.46-1.23-1.03-2.42-1.72-3.59-1-1.68-3.27-.71-3.68,.84-.26,.98-.19,2.05,.12,3.08-.95-.03-1.88,.07-2.69,.23-.94,.19-2.01,1.03-1.76,2.15,.54,2.46,2.98,3.02,5.39,3.15-.22,1.73,.07,3.5,.91,5.15,.79,1.55,2.58,1.98,3.84,.67,.97-1.01,1.61-2.21,1.91-3.49,1.58,.57,3.24,.71,5.01,0,1.43-.58,1.99-2.67,.64-3.68Z"/><path class="g" d="M19.08,59.7c-.89-.61-1.81-1.06-2.8-1.33,.52-.5,1.01-1.03,1.47-1.61,.56-.7-.15-1.5-.93-1.32-.96,.23-2.04,.87-2.58,1.76-.03-.03-.06-.06-.09-.09,.05-1.12-.39-1.98-1.34-2.69-.54-.4-1.18,0-1.19,.63,0,.63,.15,1.19,.41,1.7-.57-.08-1.15-.11-1.75-.09-.72,.02-1.03,1.07-.46,1.5,.95,.72,1.97,1.2,3.09,1.44-.14,1.05,.03,2.06,.53,3.05,.26,.51,1.04,.83,1.44,.25,.49-.7,.74-1.47,.75-2.23,.92,.41,1.89,.65,2.98,.54,.67-.07,1.08-1.06,.46-1.49Z"/></g><path class="d" d="M16.72,58.31c-.45-.36-1.11-.38-1.66-.31-.02,0-.04,0-.06,.01,.3-.24,.6-.42,.79-.77,.11-.21-.05-.53-.29-.55-.53-.03-.96,.26-1.29,.67-.13-.44-.26-1-.72-1.2-.22-.1-.48,0-.59,.22-.22,.45,.06,.96,.24,1.38,.12,.28,.27,.55,.41,.82-.01,.04-.03,.08-.04,.11-.09,.3,.15,.5,.38,.46,.17,.15,.47,.08,.6-.1,.2,0,.39,0,.59,0,.45,0,.95,.13,1.39,.04,.35-.07,.56-.52,.24-.78Z"/></g><g><g><path class="g" d="M47.39,56.46c-.93-.31-1.89-.53-2.7-1.14-.97-.72-1.45-1.58-1.69-2.74-.2-.98,.91-1.93,1.84-1.73,1.02,.22,1.99,.53,2.92,.89-.3-2.1-.15-4.27,1.62-4.86,2.53-.84,3.16,2.28,3.35,4.96,2.18-1.23,4.74-1.93,5.26,.78,.36,1.88-1.2,3.14-3.07,3.7,.55,.57,1.03,1.23,1.45,1.99,.4,.73,.29,1.87-.67,2.14-1.53,.44-2.84-.41-3.97-1.54-.66,2.17-1.95,4.22-4.28,3.81-3.02-.53-1.55-4.03-.06-6.26Z"/><path class="c" d="M47.56,54.64c-.61-.41-.1-1.55,.62-1.34,.42,.12,.82,.27,1.2,.45-.23-1.11-.16-2.19,.95-2.24,.33-.02,.69,.17,.8,.5,.28,.84,.31,1.64,.11,2.46,.02,.06,.04,.12,.06,.18,.45-.33,1.01-.45,1.66-.37,.55,.07,.58,.72,.24,1.03-.19,.17-.39,.31-.6,.44,.44,.3,.83,.67,1.17,1.13,.33,.44-.09,1.23-.67,1.07-.82-.22-1.5-.57-2.1-1.07-.37,.63-.81,1.21-1.34,1.74-.45,.46-1.39,.17-1.24-.57,.17-.79,.46-1.5,.91-2.14-.58-.43-1.16-.86-1.76-1.27Z"/></g><path class="d" d="M49.88,54.86c.1,.03,.21,.07,.32,.1-.05-.12-.1-.24-.15-.36-.07-.16-.16-.3-.23-.45-.08-.17-.09-.35-.15-.53-.05-.13,.1-.31,.24-.22,.16,.1,.35,.19,.48,.32,.15,.16,.25,.43,.33,.63,.03,.07,.03,.15,.05,.23,.12-.12,.24-.25,.34-.41,.23-.37,.31-.79,.51-1.17,.09-.17,.32-.2,.44-.04,.57,.77-.05,2.22-.95,2.54,.04,.15-.03,.33-.19,.4-.37,.16-.89,.08-1.28,.02-.47-.07-.78-.25-1.09-.61-.12-.15-.04-.43,.15-.48,.44-.11,.76-.1,1.18,.04Z"/></g><g><g><path class="c" d="M33.32,35.29c-.32-.27-.66-.53-1-.78,.4-.61,.73-1.3,.96-2.12,.51-1.83-1.49-3.73-3.25-3.46-1.08,.16-2.05,.46-2.93,.92-1.13-2.32-4.23-3.93-6.46-2.23-2.03,1.55-1.77,3.71-.81,5.67-.95,.36-1.68,.9-2.43,1.64-1.95,1.89,.15,5.27,2.62,4.98,.86-.1,1.71-.26,2.55-.47,.07,.37,.17,.74,.35,1.11,.7,1.47,2,2.45,3.61,2.66,1.83,.24,3.25-1.04,3.43-2.76,.31,.03,.62,.06,.94,.08,2.8,.16,4.83-3.19,2.41-5.24Z"/><path class="g" d="M27.67,34.32c1.42-.63,2.88-1.57,1.68-2.7-1.04-.98-2.72,0-3.9,.99-.26-.97-.81-1.53-1.75-1.96-.4-.19-1.01,.07-1.04,.55-.07,1.03,.2,1.85,.72,2.54-.9,.33-1.76,.81-2.56,1.3-.73,.46-.39,1.58,.4,1.73,1.09,.2,2.1-.06,3.05-.5,.03,.88,.27,1.73,.76,2.53,.26,.42,.94,.34,1.12-.1,.31-.74,.34-1.45,.23-2.16,.73,.41,1.51,.7,2.36,.91,.39,.09,.77-.3,.72-.68-.16-1.23-.87-1.97-1.8-2.45Z"/></g><path class="d" d="M26.83,35.41c-.14-.21-.23-.36-.46-.5-.19-.12-.39-.23-.59-.34-.03-.02-.07-.04-.1-.06-.02-.07-.05-.13-.09-.18,.08-.23-.17-.52-.44-.43-.56,.17-1.04,.4-1.5,.75-.38,.28-.93,.66-.98,1.16-.02,.19,.13,.41,.35,.37,.47-.09,.77-.53,1.14-.81,.08-.06,.17-.12,.26-.18-.02,.08-.04,.16-.06,.23-.09,.44-.08,1.2,.42,1.41,.55,.23,.69-.41,.68-.81,0-.1,0-.2,0-.29,.36,.3,.76,.38,1.22,.23,.23-.07,.3-.36,.17-.55Z"/></g><g><g><path class="c" d="M59.52,50.72c1.28-.83,2.29-1.86,3.06-3.06,1.51,1.17,3.38,1.77,4.93,.53,1.96-1.57,.96-3.23-.68-4.53,.24-.17,.48-.35,.71-.55,1.7-1.43,.81-4.14-1.5-4.04-1.03,.05-2.02,.24-2.97,.56-.14-.56-.28-1.12-.46-1.68-.62-1.98-3.28-1.76-4.14-.16-.47,.87-.66,1.89-.6,2.89-.63,.06-1.26,.21-1.86,.42-1.2,.43-1.36,1.96-.48,2.77,.54,.5,1.12,.85,1.73,1.07-.96,1.74-1.68,3.7-.48,5.28,.66,.87,1.82,1.08,2.74,.48Z"/><path class="g" d="M61.14,45.25c.24-.22,.24-.38,.03-.5,.23,.13,.47,.26,.71,.39,.89,.47,2.82,1.84,3.72,.74,.22-.27,.23-.76-.08-.97-.66-.45-1.34-.86-2.04-1.22,.59-.26,1.15-.56,1.7-.92,.54-.36,.3-1.18-.3-1.3-1.08-.21-2.24,.08-3.02,.81,.34-.99,.14-1.78-.59-2.55-.31-.32-.88-.05-.94,.35-.11,.73-.09,1.44,.04,2.13-.65-.12-1.32-.08-2.03,.1-.48,.12-.62,.9-.21,1.18,.54,.36,1.08,.6,1.64,.75-.62,.79-1.14,1.65-1.55,2.59-.29,.67,.45,1.18,1.03,.86,.59-.33,.99-.75,1.33-1.34,.19-.31,.46-.74,.54-1.11Z"/></g><path class="d" d="M63.9,43.83c.21-.04,.39-.11,.53-.2,.22-.15,.22-.47,.03-.63-.23-.2-.59-.32-.98-.36,.12-.11,.23-.22,.32-.35,.21-.3-.05-.77-.43-.62-.74,.29-1.31,1-1.87,1.53-.29,.27,.14,.69,.45,.49,.02-.01,.03-.02,.05-.03,.03,.05,.06,.09,.11,.12,.39,.24,.75,.54,1.09,.84,.32,.28,.55,.58,.97,.71,.25,.08,.5-.21,.47-.44-.06-.44-.36-.78-.74-1.06Z"/></g><g><g><path class="c" d="M44.65,54.51c.2-.07,.4-.13,.6-.2,2.83-1.03,1.8-5.32-1.17-5.08-.4,.03-.8,.07-1.2,.11-.08-.65-.28-1.31-.66-2-1.06-1.92-3.61-.94-4.26,.71-.89-.47-1.9-.63-2.9-.28-1.41,.49-2.13,1.97-1.72,3.41,.15,.53,.45,.99,.81,1.42-.96,.71-1.75,1.56-1.92,2.74-.17,1.15,.43,2.09,1.4,2.63,1.02,.57,1.97,.41,3.03,.04,.58-.2,1.16-.48,1.71-.75,.01,0,.03-.02,.05-.02,.23,.5,.48,.99,.8,1.36,.95,1.07,2.18,1.78,3.63,1.87,2.06,.13,3.3-1.46,2.83-3.44-.22-.91-.57-1.75-1.02-2.51Z"/><path class="g" d="M41.25,53.19c1.08-.12,2.11-.4,3.04-1.08,.68-.49,.23-1.44-.53-1.44-.99,0-1.96,.11-2.92,.3,.15-.32,.3-.64,.43-.97,.14-.35,.05-.68-.21-.94-1.2-1.21-2.01,.52-2.25,1.85-.66-.65-1.76-1.09-2.43-1.38-.61-.27-1.22,.33-1.02,.95,.39,1.22,1.41,1.49,2.37,1.95-.8,.46-1.56,.97-2.28,1.57-.58,.49-.31,1.52,.53,1.44,1.2-.12,2.17-.59,2.96-1.36,.8,1.39,2.2,3.46,3.39,2.76,1.22-.71-.04-2.44-1.08-3.66Z"/></g><path class="d" d="M39.98,52.8l-.34-.3c.03-.06,.04-.12,.04-.18,.1-.08,.21-.17,.31-.24,.11-.08,.24-.14,.36-.2,.15-.08,.25-.2,.39-.27,.21-.11,.32-.5,.02-.59-.21-.07-.44-.16-.67-.13-.24,.04-.47,.15-.67,.29-.3,.23-.49,.49-.6,.82-.59,.13-1.25,.5-1.29,1.1-.01,.22,.14,.45,.39,.42,.28-.04,.52-.21,.75-.37,.18-.13,.38-.24,.57-.35,.11,.12,.22,.24,.32,.36,.19,.21,.34,.44,.64,.49,.13,.02,.27-.09,.25-.23-.06-.3-.26-.43-.48-.63Z"/></g><g><g><path class="c" d="M80.63,95.13c.4-.48,.76-1.02,1.08-1.61,1.05-1.96-1.21-4.16-3.17-3.42-.53,.2-1.05,.42-1.57,.66-.55-1.01-1.41-1.9-2.57-2.6-2.04-1.24-4.23,1.33-3.55,3.29,.13,.37,.27,.74,.41,1.11-.55,.09-1.08,.23-1.58,.42-2.14,.81-1.73,3.85,.42,4.3,.22,.04,.58,.08,.99,.13-.56,.97-.85,2.01-.91,3.12-.13,2.3,2.39,3.57,4.07,1.87,.8-.81,1.5-1.68,2.13-2.6,2.18,1.44,4.89,2.27,5.78-.66,.52-1.69-.27-3.03-1.55-4.01Z"/><path class="g" d="M77.1,94.68c.71-.37,1.46-.64,2.29-.79,.62-.12,.89-.71,.58-1.26-.87-1.5-2.79-.23-3.9,.81-.11,.06-.21,.12-.31,.19,.06-1.25-.23-3.19-1.71-2.83-1.19,.29-.73,1.55-.22,2.6-.88-.05-1.74,.08-2.62,.39-.57,.2-.7,.98-.24,1.37,.94,.79,1.76,.66,2.72,.64-.09,.19-.17,.37-.21,.45-.24,.45-.52,.89-.74,1.36-.29,.6-.42,.93-.18,1.57,.1,.26,.34,.47,.62,.51,1.39,.21,2.15-1.59,2.59-2.96,.79,.6,1.62,1.11,2.55,1.53,.66,.3,1.22-.35,1.06-.98-.33-1.27-1.21-2.03-2.27-2.58Z"/></g><path class="d" d="M77.6,95.12c-.29-.16-.66-.1-.98-.08-.2,.01-.41,.04-.62,.08-.02-.06-.04-.11-.06-.17-.05-.38-.15-.76-.33-1.11-.12-.23-.33-.38-.6-.32-.23,.05-.46,.3-.4,.55,0,.04,.02,.09,.03,.13,.06,.28,.14,.54,.26,.79-.07,0-.13,0-.2-.01-.32-.12-.61-.04-.94,.04-.52,.13-.32,1.03,.21,.92,.31-.07,.63-.09,.94-.07,.06,.41,.15,.79,.43,1.12,.14,.17,.42,.13,.46-.11,.04-.26,.02-.49-.03-.73,.32,.02,.64,0,.96-.06,.31-.05,.7-.07,.94-.28,.24-.21,.22-.54-.06-.7Z"/></g><g><g><path class="g" d="M68.15,45.87c.7,.66,1.3,1.37,1.81,2.11,1.22-1.52,2.83-2.51,4.78-1.83,1.09,.38,1.33,1.77,.97,2.7-.54,1.41-1.1,2.77-1.76,4.11,1.29,.25,2.55,.6,3.83,1.09,1.83,.7,1.25,3.1-.21,3.77-.92,.42-1.99,.53-3.06,.4,.19,.93,.25,1.87,.23,2.69-.03,.96-.68,2.16-1.82,2.1-2.51-.12-3.48-2.43-4.02-4.78-1.67,.52-3.46,.52-5.23-.03-1.66-.51-2.39-2.21-1.31-3.68,.83-1.13,1.91-1.96,3.12-2.47-.83-1.46-1.24-3.07-.84-4.94,.33-1.51,2.29-2.41,3.52-1.25Z"/><path class="c" d="M68.25,49.38c.75,.77,1.35,1.6,1.79,2.53,.41-.6,.85-1.17,1.33-1.72,.59-.67,1.5-.1,1.45,.69-.06,.98-.51,2.16-1.3,2.84,.04,.02,.07,.05,.11,.07,1.09-.23,2.02,.05,2.87,.86,.49,.47,.2,1.16-.42,1.28-.62,.12-1.2,.05-1.74-.12,.17,.55,.3,1.11,.39,1.71,.1,.72-.88,1.19-1.4,.71-.87-.82-1.51-1.73-1.94-2.8-1.01,.32-2.04,.32-3.1,0-.54-.17-.99-.88-.49-1.38,.61-.6,1.32-.98,2.07-1.12-.56-.84-.96-1.75-1.03-2.84-.05-.67,.86-1.25,1.39-.71Z"/></g><path class="d" d="M70.02,51.48c.43,.38,.57,1.03,.59,1.58,0,.02,0,.04,0,.06,.19-.34,.32-.66,.62-.91,.18-.15,.53-.04,.59,.19,.12,.52-.1,.99-.44,1.39,.45,.06,1.03,.09,1.3,.51,.13,.2,.08,.47-.11,.61-.41,.29-.96,.11-1.4,0-.3-.08-.59-.17-.88-.27-.03,.02-.07,.04-.1,.06-.28,.14-.52-.06-.51-.29-.17-.15-.16-.45,0-.61-.03-.19-.07-.39-.1-.59-.08-.44-.29-.91-.27-1.36,.01-.36,.42-.64,.73-.37Z"/></g><g><g><path class="g" d="M73.78,71.94c.42,.07,.83,.15,1.24,.25,.2-.7,.51-1.4,.98-2.1,1.05-1.58,3.8-1.3,4.74,.21,.58,.92,.99,1.85,1.21,2.82,2.5-.66,5.74,.64,5.9,3.44,.15,2.54-1.66,3.76-3.77,4.31,.35,.95,.41,1.86,.34,2.91-.17,2.71-4.09,3.32-5.49,1.26-.48-.71-.92-1.47-1.31-2.24-.32,.19-.67,.35-1.07,.46-1.57,.43-3.16,.08-4.37-1.01-1.38-1.23-1.33-3.15-.14-4.4-.23-.22-.45-.43-.67-.66-1.95-2.02-.73-5.74,2.41-5.24Z"/><path class="c" d="M75.16,75.82c-.32,.21-.37,.75-.04,.99,.71,.51,1.44,.9,2.23,1.19-.61,.38-1.12,.87-1.49,1.58-.21,.42,.17,.99,.65,.92,.92-.15,1.73-.51,2.41-1.07,.29,1.01,.74,1.95,1.61,2.64,.62,.5,1.69,.03,1.57-.83-.14-.93-.33-1.89-.68-2.79,.86-.05,1.66-.38,2.4-1.11,.35-.34,.15-.97-.26-1.15-.94-.43-1.72-.48-2.63-.05-.02-1.53-.37-3.45-1.79-3.6-1.64-.17-1.4,1.55-.95,3.03-.98-.39-2-.45-3.03,.23Z"/></g><path class="d" d="M77.92,76.94c.25-.03,.42-.06,.67,.02,.22,.07,.43,.15,.64,.23,.03,.01,.07,.03,.11,.04,.06-.03,.13-.05,.2-.05,.12-.2,.5-.21,.61,.05,.23,.53,.37,1.05,.41,1.63,.03,.47,.11,1.14-.24,1.5-.13,.13-.39,.17-.5-.02-.24-.41-.1-.93-.13-1.39,0-.1-.02-.21-.03-.32-.05,.07-.09,.13-.14,.19-.28,.35-.86,.84-1.34,.6-.54-.27-.14-.79,.17-1.04,.08-.06,.15-.12,.22-.19-.46-.08-.78-.33-.97-.77-.09-.22,.08-.46,.3-.49Z"/></g><g><g><path class="c" d="M90.8,63.64c.67-.15,1.34-.38,1.99-.68,1.13-.54,1.75-1.84,1.25-3.04-.77-1.83-2.52-2.26-4.37-2.21,.08-1.07-.04-2.17-.36-3.29-.6-2.17-3.46-1.49-4.27,.05-.27,.51-.52,1.07-.74,1.66-.7-.41-1.42-.73-2.06-.97-1.18-.44-2.82,.86-2.09,2.14,.66,1.17,1.4,2.4,2.3,3.46-.86,.66-1.65,1.44-2.37,2.29-1.32,1.55,.35,3.47,2.03,3.41,1.21-.04,2.32-.34,3.33-.85,.48,.87,1.11,1.63,1.93,2.12,.97,.57,1.8,.52,2.74-.04,1.54-.92,1.4-2.48,.69-4.03Z"/><path class="g" d="M88.72,64.14c-.16-.83-.42-1.58-.79-2.29,1.4,.02,3.09-.16,3.05-1.44-.03-1.33-1.61-1.25-2.89-.96,.37-1.23,.35-3-1.19-2.82-1.01,.12-1.35,1-1.39,1.96-.57-.46-1.16-.89-1.79-1.28-.52-.32-1.34,.03-1.21,.72,.26,1.4,1.12,2.27,2.2,2.97-1.14,.73-2.6,1.84-1.57,2.81,.82,.78,1.99-.13,2.83-1.02,.36,.77,.87,1.43,1.58,2.04,.48,.41,1.29-.09,1.17-.7Z"/></g><path class="d" d="M88.05,61.44c-.21-.24-.55-.35-.84-.47-.02,0-.04-.01-.06-.02,.21-.07,.45-.07,.61-.24,.16-.16,.18-.39,0-.55-.18-.14-.4-.14-.62-.09,.08-.25,.2-.51,.16-.77-.04-.24-.34-.48-.59-.34-.35,.2-.5,.59-.53,.98-.02,.23,0,.42,.05,.61-.07,.08-.14,.16-.21,.24-.23,.32,.18,.72,.5,.48,.16,.08,.32,.16,.49,.23,.26,.11,.55,.29,.84,.31,.2,.01,.37-.23,.22-.4Z"/></g><g><g><path class="g" d="M87.48,99.36c-.16-1.12-.07-2.19,.24-3.2-1.39-.29-2.63-1.04-2.68-2.52-.06-1.86,1.35-2.11,2.88-1.81-.02-.22-.03-.44-.04-.67-.02-1.65,1.93-2.46,3-1.11,.47,.6,.85,1.25,1.12,1.94,.38-.2,.77-.38,1.17-.56,1.41-.61,2.58,1,2.09,2.26-.27,.69-.74,1.28-1.34,1.74,.27,.38,.49,.81,.66,1.25,.34,.88-.44,1.72-1.33,1.61-.54-.06-1.02-.22-1.44-.46-.51,1.38-1.27,2.74-2.74,2.82-.81,.05-1.49-.5-1.6-1.31Z"/><path class="c" d="M89.78,95.8c0-.24,.1-.32,.27-.26-.19-.07-.37-.14-.56-.21-.7-.27-2.4-.7-2.22-1.74,.04-.25,.32-.49,.59-.42,.58,.15,1.13,.34,1.67,.56-.14-.46-.24-.92-.3-1.41-.06-.48,.52-.74,.87-.46,.64,.51,1.04,1.3,1,2.09,.39-.67,.94-.94,1.72-.9,.33,.02,.45,.47,.26,.7-.36,.42-.77,.75-1.22,1.01,.38,.31,.68,.7,.92,1.19,.16,.33-.21,.79-.56,.69-.46-.13-.86-.32-1.22-.56-.14,.73-.38,1.44-.71,2.12-.24,.49-.88,.32-.98-.16-.1-.49-.06-.92,.11-1.4,.09-.26,.19-.62,.36-.84Z"/></g><path class="d" d="M89.23,93.56c-.08-.14-.13-.27-.14-.4-.02-.19,.16-.35,.34-.32,.22,.03,.47,.18,.68,.38,0-.12,.01-.24,.04-.35,.07-.26,.45-.35,.56-.05,.19,.56,.07,1.22,.05,1.8-.01,.29-.46,.25-.49-.02-.05-.04-.09-.04-.13-.05-.32-.1-.67-.16-1-.21-.31-.04-.59-.03-.87-.2-.16-.1-.13-.38,.02-.48,.27-.18,.61-.18,.95-.1Z"/></g><g><g><path class="g" d="M47.48,70.47c-.01-.69,.05-1.39,.2-2.09,.26-1.23,1.38-2.13,2.67-1.92,1.95,.32,2.79,1.92,3.17,3.73,1.02-.33,2.12-.46,3.28-.42,2.25,.08,2.26,3.02,.95,4.16-.43,.38-.92,.75-1.44,1.1,.56,.59,1.04,1.21,1.43,1.78,.71,1.05-.17,2.94-1.59,2.53-1.29-.37-2.66-.8-3.9-1.43-.44,1-1.02,1.94-1.67,2.84-1.2,1.65-3.45,.47-3.79-1.17-.24-1.19-.21-2.33,.05-3.43-.96-.26-1.85-.7-2.51-1.39-.78-.81-.93-1.62-.6-2.68,.53-1.71,2.08-1.94,3.75-1.61Z"/><path class="c" d="M47.48,72.61c.84-.04,1.63,.04,2.41,.24-.34-1.35-.56-3.04,.68-3.31,1.3-.28,1.59,1.28,1.61,2.58,1.11-.65,2.84-1.04,3.02,.5,.12,1.01-.66,1.54-1.58,1.81,.58,.44,1.14,.92,1.67,1.44,.44,.43,.29,1.31-.42,1.34-1.43,.08-2.47-.55-3.4-1.45-.44,1.28-1.18,2.96-2.36,2.18-.95-.62-.34-1.97,.33-2.99-.83-.17-1.6-.52-2.35-1.06-.51-.37-.21-1.27,.4-1.3Z"/></g><path class="d" d="M50.25,72.63c.28,.15,.47,.46,.65,.71,.01,.02,.02,.04,.03,.05,.02-.22-.03-.45,.09-.64,.12-.19,.34-.27,.53-.12,.18,.14,.23,.36,.24,.58,.22-.14,.45-.31,.71-.33,.25-.02,.55,.22,.47,.5-.11,.39-.46,.62-.83,.74-.22,.07-.41,.1-.6,.1-.06,.09-.12,.18-.19,.26-.26,.3-.74,0-.59-.37-.11-.14-.23-.28-.34-.42-.17-.23-.41-.47-.5-.74-.06-.19,.13-.42,.33-.31Z"/></g><g><g><path class="g" d="M61.19,86.69c-.08-.2-.17-.39-.24-.59-1.06-2.82,2.86-4.83,4.62-2.42,.24,.33,.47,.65,.7,.98,.54-.36,1.18-.64,1.95-.8,2.14-.45,3.07,2.13,2.24,3.7,.93,.37,1.71,1.03,2.1,2.02,.55,1.39-.1,2.9-1.46,3.53-.5,.23-1.04,.31-1.6,.31,.09,1.19-.04,2.34-.83,3.25-.76,.87-1.87,1.03-2.91,.65-1.1-.4-1.59-1.23-2.01-2.27-.23-.57-.39-1.19-.55-1.78,0-.02-.01-.04-.02-.06-.53,.15-1.07,.29-1.55,.28-1.43-.02-2.77-.49-3.78-1.54-1.44-1.48-1.04-3.46,.76-4.39,.83-.43,1.69-.71,2.57-.86Z"/><path class="c" d="M64.4,88.41c-.62-.9-1.08-1.86-1.17-3.01-.07-.84,.94-1.12,1.44-.53,.64,.76,1.19,1.56,1.68,2.41,.14-.32,.29-.64,.46-.96,.18-.34,.48-.48,.85-.45,1.7,.12,.92,1.86,.06,2.91,.93,.07,1.97,.63,2.63,.94,.61,.29,.54,1.14-.05,1.39-1.18,.5-2.04-.1-3.02-.52,.17,.9,.28,1.82,.29,2.75,0,.76-.95,1.22-1.44,.53-.69-.99-.97-2.03-.9-3.13-1.57,.3-4.06,.59-4.31-.77-.25-1.38,1.87-1.56,3.48-1.57Z"/></g><path class="d" d="M65.53,89.12l.45,.06c.03-.06,.06-.11,.11-.15,0-.13,0-.27-.02-.39-.02-.14-.05-.27-.08-.41-.04-.16,0-.32-.05-.47-.06-.23,.17-.57,.43-.4,.19,.12,.41,.23,.53,.42,.13,.21,.2,.45,.21,.7,.02,.38-.05,.7-.23,.99,.28,.53,.43,1.28,0,1.69-.16,.16-.43,.19-.57-.03-.15-.23-.18-.53-.21-.81-.02-.22-.07-.44-.11-.66-.16,0-.32,0-.48-.01-.29,0-.56,.03-.79-.16-.1-.08-.1-.27,.01-.34,.26-.15,.5-.09,.79-.05Z"/></g><g><g><path class="g" d="M44.62,88.92c.1-.62,.27-1.24,.51-1.87,.8-2.08,3.94-1.8,4.66,.18,.19,.53,.36,1.07,.52,1.62,1.13-.24,2.36-.17,3.65,.25,2.27,.74,1.75,4.08-.18,4.83-.37,.14-.74,.28-1.11,.41,.29,.47,.53,.97,.71,1.47,.79,2.15-1.79,3.83-3.53,2.49-.17-.13-.44-.39-.74-.67-.37,1.06-.97,1.96-1.77,2.73-1.66,1.6-4.27,.51-4.07-1.87,.09-1.13,.29-2.23,.58-3.31-2.51-.72-4.91-2.23-3.27-4.81,.95-1.49,2.47-1.77,4.05-1.44Z"/><path class="c" d="M47.26,91.3c-.18-.78-.47-1.52-.89-2.25-.31-.54-.04-1.14,.58-1.26,1.71-.32,1.99,1.97,1.93,3.48,.02,.12,.04,.24,.06,.36,.91-.86,2.57-1.9,3.26-.54,.55,1.09-.7,1.57-1.83,1.86,.61,.63,1.08,1.37,1.41,2.24,.22,.57-.29,1.17-.88,1.08-1.21-.2-1.65-.91-2.26-1.65-.09,.19-.17,.37-.21,.45-.18,.48-.34,.97-.55,1.44-.27,.61-.43,.92-1.07,1.16-.26,.1-.58,.05-.79-.14-1.06-.92-.2-2.66,.56-3.9-.97-.2-1.9-.51-2.82-.93-.66-.31-.53-1.16,.05-1.44,1.18-.58,2.33-.41,3.44,.04Z"/></g><path class="d" d="M46.61,91.21c.31,.11,.51,.43,.7,.69,.12,.16,.24,.34,.35,.52,.06-.02,.11-.04,.17-.06,.33-.21,.68-.38,1.05-.47,.25-.06,.51,0,.64,.25,.11,.21,.07,.54-.16,.66-.04,.02-.08,.04-.12,.06-.25,.13-.5,.25-.77,.32,.05,.05,.09,.1,.14,.14,.3,.17,.43,.44,.58,.74,.24,.48-.58,.92-.84,.44-.15-.28-.34-.53-.56-.76-.35,.22-.7,.4-1.13,.41-.22,0-.37-.24-.22-.42,.17-.2,.36-.34,.57-.45-.22-.23-.41-.49-.58-.76-.17-.27-.4-.57-.4-.9,0-.32,.26-.52,.57-.41Z"/></g><path class="c" d="M83.6,52.99c.66,.18,1.14-.86,.57-1.24-.34-.22-.68-.41-1.04-.57,.92-.51,1.63-1.2,1-2.02-.19-.24-.53-.38-.83-.26-.76,.31-1.33,.77-1.79,1.4-.05,.02-.11,.04-.16,.06-.04-.52-.29-.98-.74-1.38-.38-.34-.86,.03-.87,.46,0,.24,.02,.46,.05,.68-.47-.13-.97-.17-1.49-.14-.51,.03-.8,.8-.34,1.11,.65,.44,1.3,.7,2.01,.83-.22,.64-.36,1.29-.41,1.99-.05,.59,.72,1.08,1.14,.52,.45-.59,.77-1.22,.95-1.92,.65,.15,1.3,.29,1.95,.47Z"/><path class="c" d="M54.94,97.42c0,.27,.08,.37,.28,.31-.22,.06-.43,.12-.65,.19-.81,.25-2.76,.58-2.65,1.77,.03,.29,.32,.58,.62,.52,.66-.12,1.3-.28,1.93-.49-.2,.5-.35,1.02-.46,1.56-.11,.53,.52,.88,.94,.59,.76-.52,1.28-1.38,1.31-2.27,.39,.79,.98,1.14,1.87,1.16,.37,0,.55-.49,.35-.76-.37-.5-.8-.9-1.29-1.24,.46-.31,.83-.73,1.14-1.26,.21-.36-.17-.91-.58-.82-.53,.11-.99,.28-1.42,.53-.1-.84-.3-1.65-.62-2.45-.23-.57-.96-.43-1.12,.1-.15,.55-.14,1.03,0,1.58,.08,.3,.16,.71,.34,.98Z"/></g><path class="c" d="M160.78,48.91h.14c.78,0,1.54-.69,1.5-1.5-.04-.81-.66-1.5-1.5-1.5h-.14c-.78,0-1.54,.69-1.5,1.5,.04,.81,.66,1.5,1.5,1.5h0Z"/></svg>